<?xml version="1.0" encoding="utf-8"?>
<!-- Generator: Adobe Illustrator 23.0.1, SVG Export Plug-In . SVG Version: 6.00 Build 0)  -->
<svg version="1.1" id="Layer_1" xmlns="http://www.w3.org/2000/svg" xmlns:xlink="http://www.w3.org/1999/xlink" x="0px" y="0px"
	 viewBox="0 0 593 595.3" style="enable-background:new 0 0 593 595.3;" xml:space="preserve">
<style type="text/css">
	.st0{fill-rule:evenodd;clip-rule:evenodd;}
	.st1{fill:#231F20;stroke:#231F20;stroke-miterlimit:10;}
</style>
<path class="st0" d="M228.4,86.9c18.6-5.8,37.4-9.1,57-10c0.1-7.5,0-59.1,0-66.7c6-0.2,11.9-0.1,18.1-0.1c0.1,3.2,0,63.3,0,66.3
	c9.4,1.1,18.6,2.1,27.7,3.3c9.2,1.3,18.2,3.6,27.3,6.2c6.9-21.1,13.8-42,20.8-63.1c5.9,1.9,11.6,3.7,17.6,5.6
	C390,49.6,383.1,70.6,376.1,92c16.9,6.7,32.6,15.3,47.5,25.8c13.8-17.8,27.5-35.5,41.3-53.3c4.9,3.8,9.6,7.5,14.5,11.3
	c-13.8,17.8-27.5,35.4-41.3,53.3c12.6,10.7,23.7,22.5,33.7,35.6c18.9-12.7,37.7-25.4,56.6-38.1c3.4,5,6.8,9.8,10.2,14.9
	c-18.9,12.7-37.6,25.4-56.5,38.1c9.5,15,17,30.6,22.8,47.5c22-5.6,43.8-11.5,65.8-17.1c1.7,6.1,3.3,12,4.9,18.1
	c-21.9,5.7-43.6,11.4-65.5,17.1c3.9,16.1,6,32.2,6.4,48.8c22.5,1.1,44.8,2.1,67.2,3.2c0,6.2,0,12,0,18.3
	c-11.4-0.3-56.2-2.3-67.2-2.7c-1.3,9.1-2.2,17.9-3.9,26.6c-1.6,8.6-3.9,17.1-5.9,25.8c21.1,8,42.3,16.1,63.7,24.2
	c-2.2,5.8-4.3,11.5-6.5,17.3c-21.4-8.1-42.5-16.1-63.9-24.1c-7.3,17.7-16.7,34.2-28.3,49.5c17.2,15,34.3,29.8,51.5,44.8
	c-4,4.7-7.9,9.3-12.1,14.1c-17.1-14.8-34-29.7-50.9-44.3c-6.7,6.4-13.1,13-20,18.9c-6.8,5.9-14.1,11.3-21.4,17.1
	c11.1,19.2,22.3,38.7,33.7,58.4c-5.3,3.1-10.5,6.1-15.9,9.3c-11.3-19.5-22.5-38.8-33.6-57.9c-8.7,4-17,8-25.5,11.6
	c-8.5,3.7-17.4,6.3-26.6,8.8c3.2,22.4,6.4,44.7,9.6,67.3c-5.9,1.3-11.8,2-17.9,3.2c-1.9-11.1-8.3-55.2-10-66.2
	c-9,0.8-17.7,1.9-26.5,2.3c-8.8,0.4-17.6,0.1-26.7,0.1c-1.7,22.1-3.3,44.3-5,66.8c-6.2-0.5-12.1-1-18.3-1.5
	c1.6-22.6,3.2-45,4.8-67.6c-17.9-2.8-35-7.7-51.6-14.6c-10,20.5-19.9,40.8-29.9,61.2c-5.7-2.7-11.1-5.4-16.8-8.1
	c10-20.4,19.9-40.6,29.9-61.1c-16.6-8.7-31.7-19.3-45.6-31.8c-15.2,16.7-30.3,33.3-45.6,50.1c-4.6-4-9-8.1-13.7-12.3
	c15.3-17,30.5-33.9,45.9-51c-11.5-12.3-21.3-25.6-29.9-40.1c-20.5,10-40.8,19.9-61.3,30c-2.8-5.6-5.5-11-8.4-16.7
	c20.4-9.9,40.6-19.8,61.1-29.7c-7.2-15.2-12.5-30.9-16.2-47.3c-22.4,3.2-44.6,6.3-67,9.5c-0.9-6.1-1.8-11.8-2.8-18
	c22.1-3.4,44.2-6.5,66.1-9.8c-0.5-9.8-1-19.5-1.3-29.1c-0.3-9.7,0.6-19.4,1.8-29.3c-5.5-1.2-60.7-8.5-66.4-9.2
	c0.7-6.1,1.5-12.1,2.2-18.3c22.5,3,44.9,5.9,67.5,8.9c4.2-18.8,10.6-36.7,19.5-53.8c-19.4-12-38.6-24-58-36c3.1-5,6-9.9,9.2-15.1
	c19.4,11.5,38.7,22.9,58.3,34.5c5.4-8.3,11.1-16.3,17.4-23.9c6.3-7.5,13.1-14.6,20.4-21.4c-14.1-17.3-28.1-34.5-42.4-52
	c4.7-3.9,9.4-7.7,14.2-11.7c14.3,17.2,28.4,34.2,42.8,51.4c15.7-12,32.6-21.7,50.9-29.3c-8.3-20.6-16.5-41-24.8-61.6
	c5.5-2.5,11.1-4.6,16.9-6.9C211.4,45.5,219.8,66,228.4,86.9z M491.7,298.4c0.1-108.7-87.8-196.7-196.7-196.9
	C186.6,101.2,98.3,189.4,98.2,298C98,406.6,185.9,494.9,294.5,495C403.4,495.2,491.6,407.3,491.7,298.4z"/>
<path class="st0" d="M314.3,247c-5-2.1-10.1-4.5-15.3-6.2c-6.1-2.1-12.5-1.6-18.7-0.2c-10.4,2.4-19.6,7.1-27.2,14.7
	c-5.2,5.3-8.2,11.6-9.2,18.9c-1.1,7.8,1.3,14.6,6.5,20.4c4.8,5.3,9.9,10.2,15.5,14.8c8,6.5,16.7,12,25.5,17.3
	c8.4,5.1,16.9,10.1,25.4,15.3c6.3,3.8,12.3,8.1,17.9,13c1.7,1.5,3.3,3,4.9,4.6c10,10.8,12.8,23.3,8.6,37.3
	c-2.5,8.2-6.3,15.6-12,22.1c-12.2,14-26.2,25.8-42.3,35.1c-3.9,2.3-8.1,3.7-12.7,4.2c-0.7,0.1-1.3,0.1-2,0c-4.8-0.5-7-4.2-4.9-8.6
	c1.2-2.4,2.7-4.8,4.5-6.8c4.1-4.6,8.5-9.1,12.8-13.6c5.7-5.9,11.6-11.7,17.2-17.6c3.5-3.7,6.5-7.8,8.5-12.5
	c4.1-9.2,2.9-17.7-3.9-25.1c-2.5-2.7-5.4-5.2-8.5-7.3c-4.3-2.9-8.9-5.5-13.5-8c-8-4.4-16.2-8.4-24.1-13
	c-11.1-6.4-21.8-13.4-31.7-21.5c-11.5-9.4-19.4-21.2-22.3-35.8c-5.3-27,3-49.1,25.1-65.7c12.3-9.3,26.5-14.2,41.8-15.9
	c12.9-1.4,25.5-0.4,37.7,4.1c7.7,2.8,14.7,6.8,20.8,12.5c6.6,6.1,10.8,13.5,12.3,22.5c2.5,15.8-7.5,30.9-23.1,34.6
	c-8.8,2.1-17.1,1.2-24.8-3.9c-3.4-2.3-6.1-5-7.1-9.2c-1.2-5,0.5-9.7,4.8-12.6c1.9-1.3,4.1-2.2,6.2-3.1c1.7-0.7,3.4-1.3,5.2-1.7
	C313.7,250,314.5,249.2,314.3,247z"/>
<path class="st0" d="M383.6,195.9c-11,0-20.1-8.9-20.1-19.8c0-11,9.6-21.1,20.1-21c10.9,0.1,20.7,10,20.6,21.1
	C404.2,186.9,394.8,195.9,383.6,195.9z"/>
<path class="st0" d="M385.5,259.3c-9.6-0.2-17.1-5.7-19.4-14.6c-3-11.3,4.5-22.5,16.1-24.1c4.9-0.7,9.6,0.1,13.9,2.6
	c7,4.1,10.6,11.6,9.5,19.5c-1.1,7.5-6.9,13.8-14.5,15.7C389.3,258.9,387.4,259.1,385.5,259.3z"/>
<path class="st0" d="M369.9,419.8c0.4-10.3,8.2-18.6,18.5-19.3c4.1-0.3,7.9,0.4,11.6,2.2c7.2,3.6,11.4,11.3,10.5,19
	c-1,8.5-7.2,15.2-15.6,17c-10,2.1-19.9-2.9-23.3-12C370.7,424.5,370.4,422.1,369.9,419.8z"/>
<path class="st0" d="M217.1,419.3c-0.2,9.3-6.9,17.2-16.2,18.9c-3.7,0.7-7.4,0.5-11-0.6c-8.1-2.6-13.3-10.1-13.1-18.8
	c0.2-8.8,6-16.2,14.5-18.3c10.8-2.8,21.7,3,24.8,13.2C216.6,415.5,216.7,417.4,217.1,419.3z"/>
<path class="st0" d="M196.4,195.4c-10.1-0.2-18.5-7.5-19.5-17.2c-1.5-14.2,13.1-25.5,26.4-20.5c7.6,2.8,13.2,10,13.5,17.5
	c0.4,9.3-6.3,17.7-15.8,19.6C199.5,195.1,198,195.2,196.4,195.4z"/>
<path class="st1" d="M232.2,186.1c17.8-8.6,37.4-13.3,57.5-13.3c19.9,0,39.4,4.6,57.1,13.1c2.8,1.3,11.1-29.3,0.1-35.4
	c-13.7-7.6-34.1-12.3-56.9-12.3c-23.1,0-43.7,4.9-57.4,12.6C221.8,156.9,229.7,187.3,232.2,186.1z"/>
</svg>
